<?xml version="1.0" encoding="UTF-8"?><svg id="b" xmlns="http://www.w3.org/2000/svg" viewBox="0 0 16 16"><g id="c"><path d="m16,16H0V0h16v16Z" fill="#374790"/><path d="m14,6.53v-2.43c0-.11-.09-.2-.2-.2H2.2c-.11,0-.2.09-.2.2v2.41c.83,0,1.5.67,1.5,1.5s-.67,1.5-1.5,1.5v2.19c0,.11.09.2.2.2h11.6c.11,0,.2-.09.2-.2v-2.16c-.83,0-1.5-.67-1.5-1.5s.67-1.5,1.5-1.5Zm-7.02.86h4v1h-4v-1Zm-1.49,4.5h-1v-1h1v1Zm0-1.75h-1v-.75h1v.75Zm0-1.5h-1v-1.5h1v1.5Zm0-2.25h-1v-.75h1v.75Zm0-1.5h-1v-1h1v1Zm6.49,5.5h-5v-1h5v1Zm0-4h-5v-1h5v1Z" fill="#fff"/></g></svg>