<svg id="Ebene_1" data-name="Ebene 1" xmlns="http://www.w3.org/2000/svg" viewBox="0 0 16 16"><rect width="16" height="16" fill="#f18519"/><polygon points="9.348 13.939 7.736 13.348 6.403 12.431 4.837 12.323 3.438 11.883 6.98 1.703 8.072 2.083 9.475 3.241 11.293 3.203 12.89 3.759 9.348 13.939" fill="#fff"/><line x1="5.56817" y1="9.89512" x2="6.60766" y2="10.25681" fill="#f18519" stroke="#f18519" stroke-linecap="round" stroke-miterlimit="10" stroke-width="0.5"/><line x1="7.75059" y1="10.65449" x2="8.76597" y2="11.00779" fill="#f18519" stroke="#f18519" stroke-linecap="round" stroke-miterlimit="10" stroke-width="0.5"/><path d="M8.42341,1.942,6.73947,1.3561l-3.725,10.70565,1.81686.63217A1.61336,1.61336,0,0,1,7.424,13.596l1.98114.68933,3.725-10.70565-2.01139-.69985A1.59583,1.59583,0,0,1,8.42341,1.942Z" fill="none" stroke="#fff" stroke-miterlimit="10" stroke-width="0.75"/><line x1="9.76625" y1="11.35583" x2="10.66971" y2="11.67018" fill="#f18519" stroke="#f18519" stroke-linecap="round" stroke-miterlimit="10" stroke-width="0.5"/><line x1="3.63513" y1="9.22253" x2="4.5725" y2="9.54869" fill="#f18519" stroke="#f18519" stroke-linecap="round" stroke-miterlimit="10" stroke-width="0.5"/></svg>