<svg xmlns="http://www.w3.org/2000/svg" viewBox="0 0 83.1 84.17"><title>Extension</title><path d="M106.07,100.13a11.56,11.56,0,0,1-3.55.51c-10.69,0-26.39-37.36-26.39-49.79,0-4.58,1.08-6.1,2.61-7.42C65.67,45,50,49.75,44.95,55.86a12.21,12.21,0,0,0-1.74,7c0,19.41,20.72,63.45,35.33,63.45,6.76,0,18.16-11.11,27.54-26.17" transform="translate(-43.2 -42.12)" style="fill:#ff8700"/><path d="M99.25,42.12c13.52,0,27,2.18,27,9.81,0,15.48-9.82,34.25-14.83,34.25-8.94,0-20.07-24.87-20.07-37.3,0-5.67,2.18-6.76,7.85-6.76" transform="translate(-43.2 -42.12)" style="fill:#ff8700"/></svg>