<?xml version="1.0" encoding="UTF-8"?><svg id="b" xmlns="http://www.w3.org/2000/svg" viewBox="0 0 14 10"><g id="c"><path d="m.5,9.5v-2.56c.86-.22,1.5-1.01,1.5-1.94s-.64-1.71-1.5-1.94V.5h13v2.56c-.86.22-1.5,1.01-1.5,1.94s.64,1.71,1.5,1.94v2.56H.5Z" fill="#fff"/><path d="m13,1v1.71c-.88.39-1.5,1.27-1.5,2.29s.62,1.9,1.5,2.29v1.71H1v-1.71c.88-.39,1.5-1.27,1.5-2.29s-.62-1.9-1.5-2.29v-1.71h12m1-1H0v3.5c.83,0,1.5.67,1.5,1.5s-.67,1.5-1.5,1.5v3.5h14v-3.5c-.83,0-1.5-.67-1.5-1.5s.67-1.5,1.5-1.5V0h0Z" fill="#8f8f8f"/><path d="m4.5,1h-1V0h1v1Zm0,1h-1v1h1v-1Zm0,5h-1v1h1v-1Zm0-3h-1v2h1v-2Zm0,5h-1v1h1v-1Zm6.5-6.5h-5v1h5v-1Zm-1,2h-4v1h4v-1Zm1,2h-5v1h5v-1Z" fill="#374790"/></g></svg>