<?xml version="1.0" encoding="UTF-8"?><svg id="b" xmlns="http://www.w3.org/2000/svg" viewBox="0 0 14 16.03"><g id="c"><ellipse cx="7" cy="13.53" rx="6.5" ry="2" fill="#e5e5e5"/><path d="m7,12.03c3.84,0,5.88,1.1,6,1.48-.12.42-2.16,1.52-6,1.52s-5.88-1.1-6-1.48c.12-.42,2.16-1.52,6-1.52m0-1c-3.87,0-7,1.12-7,2.5s3.13,2.5,7,2.5,7-1.12,7-2.5-3.13-2.5-7-2.5h0Z" fill="#c73d36"/><path d="m10,3.5c0,3-3,9-3,9,0,0-3-6-3-9S7,.5,7,.5c0,0,3,0,3,3Z" fill="#374790"/><path d="m7,13.62l-.45-.89c-.12-.25-3.05-6.14-3.05-9.22,0-1.03.31-1.86.93-2.47C5.46,0,6.95.02,7,0h0c.08,0,1.55.02,2.57,1.03.62.61.93,1.44.93,2.47,0,3.08-2.93,8.97-3.05,9.22l-.45.89Zm0-12.62c-.25,0-2.5.08-2.5,2.5,0,2.16,1.68,6.05,2.5,7.84.82-1.79,2.5-5.68,2.5-7.84,0-2.42-2.24-2.5-2.5-2.5Z" fill="#3b437c"/><path d="m8.5,3.51c0,.83-.67,1.5-1.5,1.5s-1.5-.67-1.5-1.5.67-1.5,1.5-1.5,1.5.67,1.5,1.5Z" fill="#fff"/></g></svg>