<?xml version="1.0" encoding="utf-8"?>
<!-- Generator: Adobe Illustrator 26.0.3, SVG Export Plug-In . SVG Version: 6.00 Build 0)  -->
<svg version="1.1" id="Ebene_1" xmlns="http://www.w3.org/2000/svg" xmlns:xlink="http://www.w3.org/1999/xlink" x="0px" y="0px"
	 viewBox="0 0 16 16" style="enable-background:new 0 0 16 16;" xml:space="preserve">
<style type="text/css">
	.st0{fill:#FFFFFF;}
	.st1{fill:none;stroke:#F18519;stroke-width:0.75;stroke-linecap:round;stroke-miterlimit:10;}
	.st2{fill:none;stroke:#B9B9B9;stroke-width:0.75;stroke-miterlimit:10;}
	.st3{fill:#F18519;}
</style>
<polygon class="st0" points="9,14.7 7.2,14.1 5.7,13 4,12.9 2.4,12.4 6.4,0.9 7.6,1.3 9.2,2.6 11.2,2.6 13,3.2 "/>
<line class="st1" x1="3.2" y1="9.6" x2="3.7" y2="9.8"/>
<line class="st1" x1="9.5" y1="11.8" x2="9.9" y2="12"/>
<line class="st1" x1="4.8" y1="10.2" x2="6.3" y2="10.7"/>
<line class="st1" x1="7.6" y1="11.1" x2="8.4" y2="11.4"/>
<path class="st2" d="M8,1.2L6.1,0.5L1.9,12.6l2.1,0.7c0.8-0.6,1.9-0.5,2.6,0.3c0.2,0.2,0.3,0.5,0.4,0.8l2.2,0.8L13.3,3L11,2.2
	c-0.7,0.7-1.9,0.7-2.5,0C8.2,1.9,8.1,1.6,8,1.2z"/>
<path class="st3" d="M14.9,9.6l-0.7-0.2C14.1,9.2,14,9,13.9,8.8l0.4-0.6c0.1-0.1,0.1-0.3,0-0.4l-1.2-1.2c-0.1-0.1-0.2-0.1-0.4,0
	l-0.6,0.4C12,7,11.8,6.9,11.6,6.8l-0.2-0.7c0-0.1-0.1-0.2-0.3-0.2H9.5C9.4,5.9,9.3,6,9.2,6.1L9.1,6.8C8.9,6.9,8.7,7,8.5,7.1L7.9,6.7
	c-0.1-0.1-0.3-0.1-0.4,0L6.4,7.8c-0.1,0.1-0.1,0.2,0,0.4l0.4,0.6C6.6,9,6.5,9.2,6.5,9.4L5.7,9.6c-0.1,0-0.2,0.1-0.2,0.3v1.6
	c0,0.1,0.1,0.3,0.2,0.3l0.7,0.2c0.1,0.2,0.1,0.4,0.2,0.6l-0.4,0.6c-0.1,0.1-0.1,0.3,0,0.4l1.2,1.2c0.1,0.1,0.2,0.1,0.4,0l0.6-0.4
	c0.2,0.1,0.4,0.2,0.6,0.2l0.2,0.7c0,0.1,0.1,0.2,0.3,0.2h1.6c0.1,0,0.3-0.1,0.3-0.2l0.2-0.7c0.2-0.1,0.4-0.1,0.6-0.2l0.6,0.4
	c0.1,0.1,0.3,0.1,0.4,0l1.2-1.2c0.1-0.1,0.1-0.2,0-0.4l-0.4-0.6c0.1-0.2,0.2-0.4,0.2-0.6l0.7-0.2c0.1,0,0.2-0.1,0.2-0.3V9.9
	C15.1,9.7,15,9.6,14.9,9.6z M12,10.7c0,1-0.8,1.7-1.7,1.7s-1.7-0.8-1.7-1.7s0.8-1.7,1.7-1.7l0,0C11.3,8.9,12,9.7,12,10.7z"/>
</svg>
