<svg id="Ebene_1" data-name="Ebene 1" xmlns="http://www.w3.org/2000/svg" viewBox="0 0 16 16"><rect x="3.6353" y="0.81108" width="8.72941" height="14.37784" fill="#fff"/><path d="M11.59446.29758H4.40554A1.28529,1.28529,0,0,0,3.1218,1.58132V14.41868a1.28529,1.28529,0,0,0,1.28374,1.28374h7.18892a1.28529,1.28529,0,0,0,1.28374-1.28374V1.58132A1.28529,1.28529,0,0,0,11.59446.29758Zm.77024,14.1211a.77023.77023,0,0,1-.77024.77024H4.40554a.77023.77023,0,0,1-.77024-.77024v-.25675h8.7294Zm0-.77024H3.6353V2.35156h8.7294Zm0-11.81037H3.6353V1.58132A.77023.77023,0,0,1,4.40554.81108h7.18892a.77023.77023,0,0,1,.77024.77024Z" fill="#b9b9b9" stroke="#b9b9b9" stroke-miterlimit="10" stroke-width="0.25"/><path d="M7,8.97781v-2.5l1.25.625,1.25.625-1.25.625Z" fill="#f1851b" stroke="#f18519" stroke-miterlimit="10" stroke-width="0.75"/></svg>