<svg id="Ebene_1" data-name="Ebene 1" xmlns="http://www.w3.org/2000/svg" viewBox="0 0 16 16"><polygon points="9.301 14.909 7.48 14.242 5.976 13.207 4.207 13.084 2.628 12.587 6.628 1.091 7.861 1.52 9.445 2.828 11.498 2.786 13.301 3.413 9.301 14.909" fill="#fff"/><line x1="3.50014" y1="9.8092" x2="3.90851" y2="9.9513" fill="#f18519" stroke="#f18519" stroke-linecap="round" stroke-miterlimit="10" stroke-width="0.75"/><line x1="9.77353" y1="11.99201" x2="10.18191" y2="12.1341" fill="#f18519" stroke="#f18519" stroke-linecap="round" stroke-miterlimit="10" stroke-width="0.75"/><line x1="5.03287" y1="10.34251" x2="6.50597" y2="10.85507" fill="#f18519" stroke="#f18519" stroke-linecap="round" stroke-miterlimit="10" stroke-width="0.75"/><line x1="7.82721" y1="11.31479" x2="8.64397" y2="11.59898" fill="#f18519" stroke="#f18519" stroke-linecap="round" stroke-miterlimit="10" stroke-width="0.75"/><path d="M8.25714,1.3615,6.35555.69985,2.14913,12.78917,4.2008,13.503a1.82189,1.82189,0,0,1,2.92772,1.01869l2.2372.77842L13.57215,3.21083l-2.27135-.7903A1.80208,1.80208,0,0,1,8.25714,1.3615Z" fill="none" stroke="#b9b9b9" stroke-miterlimit="10" stroke-width="0.75"/></svg>