<svg id="Ebene_1" data-name="Ebene 1" xmlns="http://www.w3.org/2000/svg" viewBox="0 0 16 16"><path d="M4.44338,4.44321a3.55662,3.55662,0,1,1,4.0012,3.52906v4.91792a.44458.44458,0,0,1-.88916,0v-4.917a3.55661,3.55661,0,0,1-3.112-3.53084ZM6.66,12.06683a.44458.44458,0,0,1-.36544.51127,5.05543,5.05543,0,0,0-1.47155.43835,1.17283,1.17283,0,0,0-.329.23563.26737.26737,0,0,0-.05068.08v.00267l.00178.00711a.13018.13018,0,0,0,.01422.02934.54862.54862,0,0,0,.12893.13338,2.43719,2.43719,0,0,0,.72288.35121A8.89157,8.89157,0,0,0,8,14.22392a8.86354,8.86354,0,0,0,2.68881-.36811,2.45929,2.45929,0,0,0,.72288-.35121.55047.55047,0,0,0,.12982-.13338.13117.13117,0,0,0,.01333-.02934l.00178-.00711v-.00356a.26749.26749,0,0,0-.05068-.08,1.17177,1.17177,0,0,0-.329-.23474A5.06425,5.06425,0,0,0,9.7054,12.5781a.44458.44458,0,1,1,.11939-.88111l.02643.0044a5.90316,5.90316,0,0,1,1.74008.52816,1.352,1.352,0,0,1,.85448,1.10522,1.12848,1.12848,0,0,1-.4837.8687,3.32,3.32,0,0,1-.9923.49615A9.744,9.744,0,0,1,8,15.11308a9.744,9.744,0,0,1-2.96978-.41346,3.32,3.32,0,0,1-.9923-.49615,1.12848,1.12848,0,0,1-.4837-.8687,1.35323,1.35323,0,0,1,.85448-1.10522,5.90307,5.90307,0,0,1,1.74008-.52816A.44457.44457,0,0,1,6.66,12.06683Z" fill="#b9b9b9" fill-rule="evenodd"/><circle cx="8" cy="4.47576" r="3.58884" fill="#f18519" stroke="#fff" stroke-miterlimit="10" stroke-width="0.75"/></svg>