<svg viewBox="0 0 13.32 15" xmlns="http://www.w3.org/2000/svg"><path d="m12.62 14.5h-11.92c-.11 0-.2-.09-.2-.2v-11.92c0-.11.09-.2.2-.2h11.91c.11 0 .2.09.2.2v11.91c0 .11-.09.2-.2.2z" fill="#fff"/><path d="m12.62 15h-11.92c-.39 0-.7-.32-.7-.7v-11.92c0-.39.32-.7.7-.7h11.91c.39 0 .7.32.7.7v11.91c0 .39-.32.7-.7.7zm-11.62-1h11.32v-11.32h-11.32z" fill="#666"/><path d="m11.7 5.54h-10.08v-2.24h10.08zm-7.84 3.36h-1.12v1.12h1.12z" fill="#374790"/><path d="m3.86 12.26h-1.12v-1.12h1.12zm0-5.6h-1.12v1.12h1.12zm2.24 4.48h-1.12v1.12h1.12zm0-2.24h-1.12v1.12h1.12zm0-2.24h-1.12v1.12h1.12zm2.24 4.48h-1.12v1.12h1.12zm0-2.24h-1.12v1.12h1.12zm0-2.24h-1.12v1.12h1.12zm2.24 4.48h-1.12v1.12h1.12zm0-2.24h-1.12v1.12h1.12zm0-2.24h-1.12v1.12h1.12z" fill="#a1a1a1"/><path d="m9.52 2.99c-.25 0-.45-.2-.45-.45v-1.84c0-.25.2-.45.45-.45h.72c.25 0 .45.2.45.45v1.84c0 .25-.2.45-.45.45zm-6.44 0c-.25 0-.45-.2-.45-.45v-1.84c0-.25.2-.45.45-.45h.72c.25 0 .45.2.45.45v1.84c0 .25-.2.45-.45.45z" fill="#a1a1a1"/><path d="m10.24.5c.11 0 .2.09.2.2v1.84c0 .11-.09.2-.2.2h-.72c-.11 0-.2-.09-.2-.2v-1.84c0-.11.09-.2.2-.2zm-6.44 0c.11 0 .2.09.2.2v1.84c0 .11-.09.2-.2.2h-.72c-.11 0-.2-.09-.2-.2v-1.84c0-.11.09-.2.2-.2zm6.44-.5h-.72c-.39 0-.7.31-.7.7v1.84c0 .39.31.7.7.7h.72c.39 0 .7-.31.7-.7v-1.84c0-.39-.31-.7-.7-.7zm-6.44 0h-.72c-.39 0-.7.31-.7.7v1.84c0 .39.31.7.7.7h.72c.39 0 .7-.31.7-.7v-1.84c0-.39-.31-.7-.7-.7z" fill="#fff"/></svg>