<svg id="Ebene_1" data-name="Ebene 1" xmlns="http://www.w3.org/2000/svg" viewBox="0 0 16 16"><path d="M10.77071,5.949a18.65037,18.65037,0,0,1-1.9384-.76481c.03454.11132.03982.16841-.02879.237a1.69858,1.69858,0,0,1-2.30305,0c-.06958-.06957-.05662-.12714-.01488-.2423A19.3485,19.3485,0,0,1,4.53327,5.949s-.67172.38384-.7197,1.87123h7.67685C11.44244,6.28486,10.77071,5.949,10.77071,5.949Z" fill="#f18519"/><path d="M9.28335,1.53478A1.40357,1.40357,0,0,0,7.84392.14334H7.46009A1.43426,1.43426,0,0,0,6.02066,1.53478v1.0556a2.17734,2.17734,0,0,0,.67341,1.39447l-.00023-.00017c-.0216,1.16208-.36943,1.26042-.19335,1.4365a1.69851,1.69851,0,0,0,2.303,0c.17661-.17655-.13335-.27489-.18422-1.4461a2.17267,2.17267,0,0,0,.664-1.3847ZM7.37457,4.417A.8868.8868,0,0,0,7.9305,4.4168a.8868.8868,0,0,1-.55593.00018Zm-.4858-.26213c.01867.01451.03746.02844.05648.04208C6.92617,4.18312,6.90744,4.16954,6.88877,4.15485Zm.22876.152a1.368,1.368,0,0,0,.12831.059A1.34963,1.34963,0,0,1,7.11753,4.30681Zm.946.05655c.04185-.01768.08377-.03513.12474-.05737C8.14726,4.32876,8.10546,4.34521,8.06355,4.36336Zm.30393-.17292c.01709-.01241.03406-.02482.05092-.03788C8.40154,4.16585,8.38457,4.17785,8.36748,4.19044Z" fill="#fdc759"/><rect x="3.81357" y="8.21754" width="7.67685" height="7.14809" fill="#fff" stroke="#b9b9b9" stroke-miterlimit="10"/><path d="M10.85547,4.05727v.00216a.72914.72914,0,0,1-.69619.694.69619.69619,0,1,1,.69619-.69619Z" fill="#fff" stroke="#b9b9b9" stroke-miterlimit="10" stroke-width="0.75"/><rect x="2.90692" y="7.32845" width="9.39595" height="2.14786" fill="#b9b9b9"/><path d="M11.44059,7.82023c.0425-.1802.47775-2.66642.47775-2.66642S10.8621,4.43553,10.744,4.4096" fill="none" stroke="#b9b9b9" stroke-miterlimit="10" stroke-width="0.75"/></svg>