<?xml version="1.0" encoding="UTF-8"?><svg id="b" xmlns="http://www.w3.org/2000/svg" viewBox="0 0 13.32 15.98"><g id="c"><path d="m12.62,14.5H.7c-.11,0-.2-.09-.2-.2V2.38c0-.11.09-.2.2-.2h11.91c.11,0,.2.09.2.2v11.91c0,.11-.09.2-.2.2Z" fill="#fff"/><path d="m12.62,15H.7c-.39,0-.7-.32-.7-.7V2.38c0-.39.32-.7.7-.7h11.91c.39,0,.7.32.7.7v11.91c0,.39-.32.7-.7.7Zm-11.62-1h11.32V2.68H1v11.32Z" fill="#666"/><path d="m11.7,5.54H1.62v-2.24h10.08v2.24Zm-7.84,3.36h-1.12v1.12h1.12v-1.12Z" fill="#333"/><path d="m3.86,12.26h-1.12v-1.12h1.12v1.12Zm0-5.6h-1.12v1.12h1.12v-1.12Zm6.72,4.48h-1.12v1.12h1.12v-1.12Zm0-2.24h-1.12v1.12h1.12v-1.12Zm0-2.24h-1.12v1.12h1.12v-1.12Z" fill="#a1a1a1"/><g><path d="m9.52,2.99c-.25,0-.45-.2-.45-.45V.7c0-.25.2-.45.45-.45h.72c.25,0,.45.2.45.45v1.84c0,.25-.2.45-.45.45h-.72Zm-6.44,0c-.25,0-.45-.2-.45-.45V.7c0-.25.2-.45.45-.45h.72c.25,0,.45.2.45.45v1.84c0,.25-.2.45-.45.45h-.72Z" fill="#a1a1a1"/><path d="m10.24.5c.11,0,.2.09.2.2v1.84c0,.11-.09.2-.2.2h-.72c-.11,0-.2-.09-.2-.2V.7c0-.11.09-.2.2-.2h.72M3.8.5c.11,0,.2.09.2.2v1.84c0,.11-.09.2-.2.2h-.72c-.11,0-.2-.09-.2-.2V.7c0-.11.09-.2.2-.2h.72m6.44-.5h-.72c-.39,0-.7.31-.7.7v1.84c0,.39.31.7.7.7h.72c.39,0,.7-.31.7-.7V.7c0-.39-.31-.7-.7-.7h0ZM3.8,0h-.72c-.39,0-.7.31-.7.7v1.84c0,.39.31.7.7.7h.72c.39,0,.7-.31.7-.7V.7c0-.39-.31-.7-.7-.7h0Z" fill="#fff"/></g><g><path d="m1.62,15.48l.02-.52c.06-1.96.98-2.54,1.09-2.6l.05-.03.06-.02c.69-.2,1.23-.44,1.75-.66l.23-.1c.07-.18.14-.41.16-.76-.47-.56-.77-1.28-.77-1.87v-1.23c0-1.15,1-2.12,2.18-2.12h.45c1.22,0,2.18.93,2.18,2.12v1.23c0,.56-.29,1.25-.76,1.8.04.39.11.64.17.82l.05.02c.53.24,1.13.52,1.91.75.19.09,1.13.62,1.2,2.64l.02.52H1.62Z" fill="#f7c656"/><path d="m6.84,6.07c.95,0,1.68.73,1.68,1.62v1.23c0,.51-.32,1.16-.77,1.63.04.78.21,1.14.28,1.35.61.28,1.28.61,2.23.89,0,0,.78.39.84,2.18H2.14c.06-1.73.84-2.18.84-2.18.92-.27,1.57-.59,2.22-.86.09-.2.27-.56.29-1.32-.46-.48-.78-1.16-.78-1.69v-1.23c0-.89.78-1.62,1.68-1.62h.45m0-1h-.45c-1.45,0-2.68,1.2-2.68,2.62v1.23c0,.65.29,1.4.75,2.02-.01.09-.03.17-.05.24,0,0-.02,0-.03.01-.51.22-1.03.45-1.69.64l-.11.03-.1.06c-.21.12-1.27.83-1.34,3.02l-.03,1.03h11.01l-.03-1.03c-.07-2.27-1.17-2.93-1.39-3.04l-.08-.04-.09-.03c-.68-.2-1.2-.43-1.69-.66-.02-.09-.04-.19-.06-.31.39-.53.74-1.24.74-1.95v-1.23c0-1.47-1.18-2.62-2.68-2.62h0Z" fill="#fff"/></g><path d="m10.24,12.83c-.95-.28-1.62-.61-2.24-.89.06.11.06.22-.06.28-.67.73-2.07.67-2.68,0-.06-.06-.06-.17,0-.28-.67.28-1.34.61-2.29.89,0,0-.78.45-.84,2.18h8.94c-.06-1.79-.84-2.18-.84-2.18Z" fill="#374790"/><path d="m2.75,14.45c.11-.73.39-1.01.5-1.12.61-.17,1.12-.39,1.57-.61.06,0,.11-.06.17-.06.39.39,1.01.61,1.68.61s1.29-.22,1.68-.61c.06,0,.11.06.17.06.45.22.95.39,1.57.61.11.06.34.39.45,1.12l.06.56h.56c-.06-1.79-.84-2.18-.84-2.18-.95-.28-1.62-.61-2.24-.89.06.11.06.22-.06.28-.34.34-.84.5-1.34.5s-1.06-.17-1.34-.5c-.06-.06-.06-.17,0-.28-.67.28-1.34.61-2.29.89,0,0-.78.45-.84,2.18h.56v-.56Z" fill="#212121" isolation="isolate" opacity=".15"/><path d="m8.51,7.68c0-.89-.73-1.62-1.68-1.62h-.45c-.89,0-1.68.73-1.68,1.62v1.23c0,.52.33,1.17.78,1.62,0,1.34-.45,1.45-.22,1.68.61.67,2.01.73,2.68,0,.22-.22-.17-.34-.22-1.68.46-.46.78-1.1.78-1.62v-1.23Zm-2.22,3.36c.11.03.21.05.32.05s.22-.02.32-.05c-.11.03-.21.05-.32.05s-.22-.02-.32-.05Zm-.56-.3s.03.03.05.04c-.02-.01-.04-.03-.05-.04Zm.26.17s.1.05.15.07c-.05-.02-.1-.04-.15-.07Zm1.09.07s.1-.04.15-.07c-.05.03-.1.05-.15.07Zm.36-.2s.03-.03.05-.04c-.02.01-.03.03-.05.04Z" fill="#f7c656"/><path d="m8.51,8.91v-1.23c0-.89-.73-1.62-1.68-1.62h-.45c-.89,0-1.68.73-1.68,1.62v1.23c0,.52.33,1.17.78,1.62,0,.84-.17,1.17-.22,1.4-.06.11-.06.22,0,.28.06.06.17.17.28.22l.17-.06.11-.22v-.06c.06-.17.17-.56.22-1.12-.05-.04-.09-.07-.14-.1.22.13.46.21.7.21s.47-.08.69-.21c-.03.01-.05.03-.07.04.06.56.17.89.22,1.12v.06l.06.28.17.06c.11-.06.17-.11.28-.22.06-.06.06-.17.06-.28-.06-.22-.22-.56-.22-1.4-.14.14-.29.24-.47.34.66-.41,1.2-1.29,1.2-1.96Zm-3.24,0v-1.23c0-.56.5-1.06,1.12-1.06h.45c.61,0,1.12.45,1.12,1.06v1.23c0,.61-.73,1.62-1.34,1.62s-1.34-1.01-1.34-1.62Z" fill="#e6a13d"/></g></svg>