<?xml version="1.0" encoding="UTF-8"?><svg id="b" xmlns="http://www.w3.org/2000/svg" viewBox="0 0 13.96 15.64"><g id="c"><polygon points=".59 15.14 1.2 12.14 12.76 12.14 13.37 15.14 .59 15.14" fill="#e5e5e5"/><path d="m12.35,12.64l.4,2H1.2l.4-2h10.75m.64-1H.97c-.1,0-.19.04-.2.09L0,15.53c-.01.06.08.11.2.11h13.56c.12,0,.21-.05.2-.11l-.77-3.8c-.01-.05-.1-.09-.2-.09h0Z" fill="#8f8f8f"/><path d="m9.98,3.5c0,3-3,9-3,9,0,0-3-6-3-9S6.98.5,6.98.5c0,0,3,0,3,3Z" fill="#374790"/><path d="m6.98,13.62l-.45-.89c-.12-.25-3.05-6.14-3.05-9.22,0-1.03.31-1.86.93-2.47C5.43,0,6.93.02,6.98,0h0c.08,0,1.55.02,2.57,1.03.62.61.93,1.44.93,2.47,0,3.08-2.93,8.97-3.05,9.22l-.45.89Zm0-12.62c-.25,0-2.5.08-2.5,2.5,0,2.16,1.68,6.05,2.5,7.84.82-1.79,2.5-5.68,2.5-7.84,0-2.42-2.24-2.5-2.5-2.5Z" fill="#3b437c"/><path d="m8.48,3.51c0,.83-.67,1.5-1.5,1.5s-1.5-.67-1.5-1.5.67-1.5,1.5-1.5,1.5.67,1.5,1.5Z" fill="#fff"/></g></svg>