<?xml version="1.0" encoding="UTF-8"?><svg id="b" xmlns="http://www.w3.org/2000/svg" viewBox="0 0 17.53 16.26"><g id="c"><g><path d="m2.04,11.76l.02-.52c.07-2.14,1.07-2.78,1.18-2.84l.05-.03.06-.02c.78-.23,1.37-.49,1.95-.74l.28-.12c.08-.21.17-.48.19-.9-.52-.62-.86-1.41-.86-2.06v-1.37c0-1.25,1.08-2.3,2.36-2.3h.5c1.33,0,2.36,1.01,2.36,2.3v1.37c0,.61-.33,1.38-.84,1.99.04.47.13.76.2.96l.09.04c.59.27,1.25.58,2.13.83.2.09,1.22.67,1.29,2.89l.02.52H2.04Z" fill="#f7c656"/><path d="m7.78,1.36c1.06,0,1.86.81,1.86,1.8v1.37c0,.56-.36,1.29-.86,1.81.05.87.23,1.27.31,1.51.68.31,1.42.68,2.47.99,0,0,.87.43.93,2.42H2.56c.06-1.93.93-2.42.93-2.42,1.02-.3,1.75-.66,2.47-.96.1-.23.3-.62.32-1.47-.51-.53-.86-1.29-.86-1.88v-1.37c0-.99.87-1.8,1.86-1.8h.5m0-1h-.5c-1.55,0-2.86,1.28-2.86,2.8v1.37c0,.71.32,1.54.84,2.22-.02.15-.04.27-.07.37-.03.01-.05.02-.08.03-.56.25-1.15.5-1.89.72l-.11.03-.1.06c-.23.13-1.36.89-1.43,3.26l-.03,1.03h12l-.03-1.03c-.08-2.46-1.25-3.17-1.48-3.29l-.08-.04-.09-.03c-.79-.23-1.38-.5-1.94-.76-.03-.12-.06-.27-.09-.45.52-.67.82-1.46.82-2.14v-1.37c0-1.57-1.26-2.8-2.86-2.8h0Z" fill="#fff"/></g><path d="m11.56,8.87c-1.06-.31-1.8-.68-2.48-.99.06.12.06.25-.06.31-.75.81-2.3.75-2.98,0-.06-.06-.06-.19,0-.31-.75.31-1.49.68-2.55.99,0,0-.87.5-.93,2.42h9.94c-.06-1.99-.93-2.42-.93-2.42Z" fill="#ffc634"/><path d="m3.24,10.67c.12-.81.43-1.12.56-1.24.68-.19,1.24-.43,1.74-.68.06,0,.12-.06.19-.06.43.43,1.12.68,1.86.68s1.43-.25,1.86-.68c.06,0,.12.06.19.06.5.25,1.06.43,1.74.68.12.06.37.43.5,1.24l.06.62h.62c-.06-1.99-.93-2.42-.93-2.42-1.06-.31-1.8-.68-2.48-.99.06.12.06.25-.06.31-.37.37-.93.56-1.49.56s-1.18-.19-1.49-.56c-.06-.06-.06-.19,0-.31-.75.31-1.49.68-2.55.99,0,0-.87.5-.93,2.42h.62v-.62Z" fill="#212121" isolation="isolate" opacity=".15"/><path d="m7.17,6.88c.12.03.24.06.36.06s.24-.02.36-.06c-.12.04-.24.06-.36.06s-.24-.02-.36-.06Z" fill="#f7c656"/><path d="m6.55,6.55s.04.03.06.04c-.02-.01-.04-.03-.06-.04Z" fill="#f7c656"/><path d="m6.84,6.74c.05.03.11.05.16.07-.05-.02-.11-.05-.16-.07Z" fill="#f7c656"/><path d="m8.05,6.82c.05-.02.11-.05.16-.07-.05.03-.11.05-.16.07Z" fill="#f7c656"/><path d="m8.44,6.59s.04-.03.06-.04c-.02.02-.04.03-.06.04Z" fill="#f7c656"/><path d="m9.64,3.15c0-.99-.81-1.8-1.86-1.8h-.5c-.99,0-1.86.81-1.86,1.8v1.37c0,.58.36,1.3.87,1.8,0,1.49-.5,1.61-.25,1.86.68.75,2.24.81,2.98,0,.25-.25-.19-.37-.25-1.86.51-.51.87-1.22.87-1.8v-1.37Zm4,4c0-.99-.81-1.8-1.86-1.8h-.5c-.99,0-1.86.81-1.86,1.8v1.37c0,.58.36,1.3.87,1.8,0,1.49-.5,1.61-.25,1.86.68.75,2.24.81,2.98,0,.25-.25-.19-.37-.25-1.86.51-.51.87-1.22.87-1.8v-1.37Z" fill="#f7c656"/><path d="m9.64,4.52v-1.37c0-.99-.81-1.8-1.86-1.8h-.5c-.99,0-1.86.81-1.86,1.8v1.37c0,.58.36,1.3.87,1.8,0,.93-.19,1.3-.25,1.55-.06.12-.06.25,0,.31.06.06.19.19.31.25l.19-.06.12-.25v-.06c.06-.19.19-.62.25-1.24-.06-.04-.1-.08-.15-.11.25.15.51.24.77.24s.52-.09.77-.23c-.03.02-.05.03-.08.05.06.62.19.99.25,1.24v.06l.06.31.19.06c.12-.06.19-.12.31-.25.06-.06.06-.19.06-.31-.06-.25-.25-.62-.25-1.55-.16.16-.32.27-.52.38.74-.45,1.33-1.44,1.33-2.18Zm-3.6,0v-1.37c0-.62.56-1.18,1.24-1.18h.5c.68,0,1.24.5,1.24,1.18v1.37c0,.68-.81,1.8-1.49,1.8s-1.49-1.12-1.49-1.8Z" fill="#e6a13d"/><g><path d="m6.04,15.76l.02-.52c.07-2.14,1.07-2.78,1.18-2.84l.05-.03.06-.02c.78-.23,1.37-.49,1.95-.74l.28-.12c.08-.21.17-.48.19-.9-.52-.62-.86-1.41-.86-2.06v-1.37c0-1.25,1.08-2.3,2.36-2.3h.5c1.33,0,2.36,1.01,2.36,2.3v1.37c0,.61-.33,1.38-.84,1.99.04.47.13.76.2.96l.09.04c.59.27,1.25.58,2.13.83.2.09,1.22.67,1.29,2.89l.02.52H6.04Z" fill="#f7c656"/><path d="m11.78,5.36c1.06,0,1.86.81,1.86,1.8v1.37c0,.56-.36,1.29-.86,1.81.05.87.23,1.27.31,1.51.68.31,1.42.68,2.47.99,0,0,.87.43.93,2.42H6.56c.06-1.93.93-2.42.93-2.42,1.02-.3,1.75-.66,2.47-.96.1-.23.3-.62.32-1.47-.51-.53-.86-1.29-.86-1.88v-1.37c0-.99.87-1.8,1.86-1.8h.5m0-1h-.5c-1.55,0-2.86,1.28-2.86,2.8v1.37c0,.71.32,1.54.84,2.22-.02.15-.04.27-.07.37-.03.01-.05.02-.08.03-.56.25-1.15.5-1.89.72l-.11.03-.1.06c-.23.13-1.36.89-1.43,3.26l-.03,1.03h12l-.03-1.03c-.08-2.46-1.25-3.17-1.48-3.29l-.08-.04-.09-.03c-.79-.23-1.38-.5-1.94-.76-.03-.12-.06-.27-.09-.45.52-.67.82-1.46.82-2.14v-1.37c0-1.57-1.26-2.8-2.86-2.8h0Z" fill="#fff"/></g><path d="m15.56,12.87c-1.06-.31-1.8-.68-2.48-.99.06.12.06.25-.06.31-.75.81-2.3.75-2.98,0-.06-.06-.06-.19,0-.31-.75.31-1.49.68-2.55.99,0,0-.87.5-.93,2.42h9.94c-.06-1.99-.93-2.42-.93-2.42Z" fill="#374790"/><path d="m7.24,14.67c.12-.81.43-1.12.56-1.24.68-.19,1.24-.43,1.74-.68.06,0,.12-.06.19-.06.43.43,1.12.68,1.86.68s1.43-.25,1.86-.68c.06,0,.12.06.19.06.5.25,1.06.43,1.74.68.12.06.37.43.5,1.24l.06.62h.62c-.06-1.99-.93-2.42-.93-2.42-1.06-.31-1.8-.68-2.48-.99.06.12.06.25-.06.31-.37.37-.93.56-1.49.56s-1.18-.19-1.49-.56c-.06-.06-.06-.19,0-.31-.75.31-1.49.68-2.55.99,0,0-.87.5-.93,2.42h.62v-.62Z" fill="#212121" isolation="isolate" opacity=".15"/><path d="m11.17,10.88c.12.03.24.06.36.06s.24-.02.36-.06c-.12.04-.24.06-.36.06s-.24-.02-.36-.06Z" fill="#f7c656"/><path d="m10.55,10.55s.04.03.06.04c-.02-.01-.04-.03-.06-.04Z" fill="#f7c656"/><path d="m10.84,10.74c.05.03.11.05.16.07-.05-.02-.11-.05-.16-.07Z" fill="#f7c656"/><path d="m12.05,10.82c.05-.02.11-.05.16-.07-.05.03-.11.05-.16.07Z" fill="#f7c656"/><path d="m12.44,10.59s.04-.03.06-.04c-.02.02-.04.03-.06.04Z" fill="#f7c656"/><path d="m13.64,8.52v-1.37c0-.99-.81-1.8-1.86-1.8h-.5c-.99,0-1.86.81-1.86,1.8v1.37c0,.58.36,1.3.87,1.8,0,.93-.19,1.3-.25,1.55-.06.12-.06.25,0,.31.06.06.19.19.31.25l.19-.06.12-.25v-.06c.06-.19.19-.62.25-1.24-.06-.04-.1-.08-.15-.11.25.15.51.24.77.24s.52-.09.77-.23c-.03.02-.05.03-.08.05.06.62.19.99.25,1.24v.06l.06.31.19.06c.12-.06.19-.12.31-.25.06-.06.06-.19.06-.31-.06-.25-.25-.62-.25-1.55-.16.16-.32.27-.52.38.74-.45,1.33-1.44,1.33-2.18Zm-3.6,0v-1.37c0-.62.56-1.18,1.24-1.18h.5c.68,0,1.24.5,1.24,1.18v1.37c0,.68-.81,1.8-1.49,1.8s-1.49-1.12-1.49-1.8Z" fill="#e6a13d"/><g><path d="m4.48,12.12c-1.6,0-2.93-1.22-3.09-2.79h-.51l-.21-.17c-.23-.24-.23-.61,0-.84l1.34-1.34.27-.03c.16,0,.3.06.42.17l1.35,1.35.03.27c0,.33-.27.59-.59.59h-.34c.14.6.69,1.05,1.33,1.05.26,0,.51-.07.73-.21l.34-.21,1.22,1.22-.48.34c-.53.38-1.16.59-1.81.59Zm10.33-6.65l-.21-.17-1.4-1.4-.03-.28c0-.33.27-.59.59-.59h.25c-.25-.46-.73-.77-1.29-.77-.2,0-.4.04-.59.12l-.31.14-1.27-1.27.56-.33c.49-.28,1.05-.43,1.61-.43,1.52,0,2.83,1.08,3.14,2.53h.61l.21.17c.23.23.24.61,0,.84l-1.41,1.41-.27.03h-.21Z" fill="#666"/><path d="m12.72,1c1.44,0,2.61,1.12,2.71,2.53h.84s.05.01.07.03c.04.04.04.1,0,.14l-1.26,1.26s-.04.03-.07.03-.05,0-.07-.03l-1.26-1.26s-.03-.04-.03-.07c0-.05.04-.1.1-.1h.91c-.1-.99-.93-1.77-1.95-1.77-.27,0-.54.06-.79.17l-.57-.57c.4-.23.86-.37,1.36-.37M2.29,7.46s.05,0,.06.03l1.2,1.2s.03.04.03.06c0,.05-.04.09-.09.09h-.87c0,.06-.01.12-.01.18,0,1.03.84,1.87,1.87,1.87.35,0,.7-.1.99-.29l.53.53c-.43.31-.95.49-1.52.49-1.43,0-2.6-1.17-2.6-2.6,0-.06,0-.12,0-.18h-.8s-.05,0-.06-.03c-.04-.04-.04-.09,0-.13l1.2-1.2s.04-.03.06-.03M12.72,0c-.65,0-1.29.17-1.86.5l-1.13.65.92.92.57.57.49.49.63-.28c.12-.05.25-.08.38-.08.11,0,.21.02.3.05-.22.2-.36.49-.36.81,0,.29.12.57.32.78l1.25,1.25c.21.21.48.32.77.32s.57-.11.77-.32l1.26-1.26c.21-.21.32-.48.32-.77,0-.29-.11-.57-.32-.78-.2-.2-.49-.32-.78-.32h-.02c-.5-1.48-1.9-2.53-3.52-2.53h0ZM2.29,6.46c-.29,0-.57.11-.77.32l-1.2,1.2C.11,8.18,0,8.45,0,8.75c0,.29.11.57.32.77.18.18.41.29.65.31.37,1.6,1.8,2.79,3.51,2.79.76,0,1.49-.24,2.1-.68l.95-.69-.83-.83-.53-.53-.57-.57-.68.43c-.14.09-.3.13-.46.13-.19,0-.37-.06-.51-.17.36-.18.61-.55.61-.98,0-.29-.12-.57-.32-.77l-1.2-1.2c-.21-.21-.48-.32-.77-.32h0Z" fill="#fff"/></g></g></svg>